<svg xmlns="http://www.w3.org/2000/svg" xmlns:xlink="http://www.w3.org/1999/xlink" width="50" height="43"><defs><path id="a" d="M0 42.615h49.131V0H0z"/></defs><g fill="none" fill-rule="evenodd"><path fill="#FEFEFE" d="M25.776 18.351h1.395c.405 0 .738-.225.738-.504s-.333-.504-.738-.504h-1.395v1.008m2.214 3.096v-1.035s-.054-.81-.9-.81h-1.314v1.845h-1.35v-5.319h3.276s1.71-.207 1.71 1.557c0 .918-.756 1.242-.756 1.242s.657.306.657 1.206v1.314H27.99m8.776-2.475h1.313l-.647-1.584-.666 1.584m7.154 2.475l-2.141-3.555v3.555h-2.646l-.477-1.116H36.19l-.47 1.116h-2.113s-1.818-.26-1.818-2.51c0-2.953 2.062-2.836 2.133-2.854l1.665.045v1.197l-1.367.018s-.891 0-1 1.161a3.496 3.496 0 0 0-.017.37c.004 1.798 1.56 1.24 1.61 1.223l1.675-3.969h1.889l2.025 4.824v-4.824h1.908l2.115 3.501v-3.5h1.36v5.318H43.92M7.875 18.972h1.314l-.657-1.584-.657 1.584zm9.522 2.475v-3.672l-1.692 3.672h-1.107l-1.701-3.654v3.654h-2.664l-.468-1.116H7.299l-.477 1.116H5.346l2.241-5.319h1.899l2.052 4.887v-4.887h2.133l1.485 3.303 1.476-3.303h2.133v5.32h-1.368zm2.115 0v-5.318h4.212v1.24h-2.853v.82h2.781v1.206h-2.78v.9h2.852v1.152z"/><mask id="b" fill="#fff"><use xlink:href="#a"/></mask><path fill="#FEFEFE" d="M29.971 21.464h1.358v-5.336h-1.358zm1.016 5.906h1.396c.404 0 .737-.226.737-.505s-.333-.504-.737-.504h-1.396v1.008m2.214 3.096V29.43s-.055-.81-.9-.81h-1.314v1.845h-1.35v-5.319h3.276s1.71-.207 1.71 1.557c0 .918-.756 1.242-.756 1.242s.648.306.648 1.205v1.315h-1.314m-7.668-3.105h1.395c.405 0 .738-.226.738-.505 0-.278-.333-.504-.738-.504h-1.395v1.008m-9.045 1.945h2.844l1.332-1.466-1.332-1.459h-2.844v.818h2.772v1.207h-2.772v.9m6.021-1.466l1.674 1.853v-3.699l-1.674 1.846m1.692 2.618h-1.179l-1.43-1.576-1.44 1.576h-5.024v-5.328h4.915l1.548 1.692 1.557-1.683h1.035v-.009h3.276s1.71-.189 1.71 1.565c0 1.566-.568 2.053-2.313 2.053h-1.323v1.71h-1.332m18.207-.009h-2.403v-1.225h2.106s.756.09.756-.42c0-.48-1.143-.443-1.143-.443s-1.863.162-1.863-1.584c0-1.737 1.683-1.638 1.683-1.638h2.593v1.242H42.05s-.72-.145-.72.38c0 .438.98.375.98.375s2.061-.152 2.061 1.45c0 1.717-1.328 1.87-1.799 1.87-.1 0-.163-.007-.163-.007m-7.227.009v-5.31h4.21v1.233H36.54v.818h2.782v1.207H36.54v.901h2.853v1.151zm11.987-.009h-2.403v-1.225h2.097s.765.09.765-.42c0-.48-1.143-.443-1.143-.443s-1.863.162-1.863-1.584c0-1.737 1.683-1.638 1.683-1.638h2.584v1.242h-2.08s-.72-.145-.72.38c0 .438.98.375.98.375s2.062-.152 2.062 1.45c0 1.717-1.328 1.87-1.8 1.87-.1 0-.162-.007-.162-.007M1.629 40.473h.522c.17 0 .324-.045.324-.27 0-.234-.162-.251-.28-.251H1.63v.52m.873 1.063a2.31 2.31 0 0 1-.054-.495c0-.135-.018-.28-.27-.28h-.55v.775h-.323v-1.872h.873c.297 0 .63.099.63.523a.474.474 0 0 1-.207.423c.09.045.162.126.17.333l.01.324c.009.098.018.117.09.16v.109H2.5m-2.204-.917c0 .935.729 1.7 1.71 1.7.972 0 1.7-.765 1.7-1.7 0-.946-.72-1.702-1.7-1.702-.99 0-1.71.756-1.71 1.702m-.297 0c0-1.108.89-2 2.007-2 1.107 0 1.998.892 1.998 2a1.993 1.993 0 0 1-1.998 1.998A1.995 1.995 0 0 1 0 40.618" mask="url(#b)"/><path fill="#FEFEFE" d="M47.313 31.454l-.163-.009-3.402.002v-.233a3.17 3.17 0 0 1-1.195.24l-.163-.009-2.016.001v.01h-4.877v.01h-3.315v-1l.006-.846h-.22v1.845h-3.35v-1.999c-.55.222-1.181.28-1.78.28h-.323v1.71H22.56l-.99-1.09-.998 1.09H14.11v-7.328h6.355l1.111 1.215c.409-.44 1.116-1.206 1.116-1.206h.438l1.035-.009h3.24a3.059 3.059 0 0 1 1.213.184v-.166h4.238a2.99 2.99 0 0 1 1.307.206v-.206h6.212v.21a3.043 3.043 0 0 1 1.21-.217l3.533-.002v.226a3.046 3.046 0 0 1 1.226-.224h2.544V0H5.418v18.658l1.486-3.53h3.229l.387.922v-.922h3.78l.834 1.86.832-1.86h11.678a2.977 2.977 0 0 1 1.309.207v-.207h3.358v.442a3.35 3.35 0 0 1 1.618-.487l1.872.051.002-.006h3.22s.35.835.358.858v-.858h3.474l.55.912v-.912h3.36v7.32h-3.428l-.578-.958v.957h-4.304l-.478-1.116h-1.142l-.467 1.116h-2.852l-.07-.01a3.036 3.036 0 0 1-1.136-.447v.475h-2.358v-.018h-2.98v-1l.005-.845h-.22v1.845H16.379v-.113c-.015.036-.052.113-.052.113h-2.385l-.063-.137v.137H9.55l-.467-1.116H7.94l-.477 1.116H5.418v20.078h43.47V31.022a3.039 3.039 0 0 1-1.575.432" mask="url(#b)"/></g></svg>