<svg xmlns="http://www.w3.org/2000/svg" width="132" height="38"><g fill="none"><ellipse cx="26.4" cy="28.087" fill="#97CF26" rx="9.9" ry="9.913"/><ellipse cx="8.25" cy="26.435" fill="#A169F7" rx="4.95" ry="4.957"/><ellipse cx="26.4" cy="8.261" fill="#FF6163" rx="6.6" ry="6.609"/><ellipse cx="8.25" cy="9.087" fill="#0AF" rx="8.25" ry="9.087"/><path fill="#000" d="M62.435 33.043h5.215L57.992 6.609H54.21l-9.66 26.434h5.215l1.845-5.045h8.98l1.845 5.045-9.373-9.023 3.039-8.313 3.036 8.313h-6.075zM79.566 14.87l-4.491 13.223-4.49-13.223H66l6.174 18.173h5.803L84.15 14.87h-4.584"/><g fill="#000" transform="translate(87.45 6.609)"><path d="M.677 8.404h4.818V26.38H.677z"/><ellipse cx="3.102" cy="3.204" rx="3.102" ry="3.159"/></g><path fill="#000" d="M110.55 18.766v-3.932h-5.953V9.913H99.63v4.921H95.7v3.932h3.93v7.676c0 3.959 2.02 6.601 7.18 6.601 1.993 0 3.74-.716 3.74-.716l-.604-3.852s-.978.286-2.18.286c-1.474 0-3.17-.622-3.17-2.619v-7.376h5.954m12.376 9.531c-2.578 0-4.667-2.283-4.667-5.098 0-2.813 2.09-5.096 4.667-5.096 2.579 0 4.667 2.283 4.667 5.096 0 2.816-2.088 5.098-4.667 5.098m0-15.08c-5.011 0-9.076 4.44-9.076 9.913 0 5.476 4.065 9.913 9.076 9.913 5.01 0 9.074-4.437 9.074-9.913 0-5.472-4.065-9.913-9.074-9.913"/></g></svg>