<svg xmlns="http://www.w3.org/2000/svg" xmlns:xlink="http://www.w3.org/1999/xlink" width="147" height="42"><defs><path id="a" d="M721.436 416.232l5.564 5.563-5.564 5.564v11.633a4.003 4.003 0 0 1-4.005 4.008H584.006a4.005 4.005 0 0 1-4.005-4.008v-33.984a4.003 4.003 0 0 1 4.005-4.008H717.43a4.005 4.005 0 0 1 4.005 4.008v11.224z"/></defs><g fill="none" fill-rule="evenodd" transform="matrix(-1 0 0 1 727 -401)"><use fill="#FFF" xlink:href="#a"/><path stroke="#D0021B" d="M726.293 421.795l-5.357-5.356v-11.43a3.505 3.505 0 0 0-3.505-3.509H584.006a3.503 3.503 0 0 0-3.505 3.508v33.984a3.505 3.505 0 0 0 3.505 3.508H717.43a3.503 3.503 0 0 0 3.505-3.508v-11.84l5.357-5.357z"/></g></svg>