<svg xmlns="http://www.w3.org/2000/svg" width="111" height="69"><g fill="none" fill-rule="evenodd"><path fill="#F1AD3D" d="M79.221 68.097l1.687-.126 1.653-.218 1.641-.3 1.597-.378 1.575-.46 1.541-.54 1.508-.608 1.473-.69 1.43-.746 1.385-.827 1.351-.884 1.296-.953 1.25-1.011 1.206-1.069 1.15-1.137 1.106-1.183 1.039-1.24.982-1.287.927-1.332.86-1.39.804-1.425.726-1.47.67-1.516.592-1.55.525-1.586.447-1.62.368-1.642.29-1.688.213-1.7.123-1.735.044-1.757-.044-1.746-.123-1.723-.212-1.7-.29-1.666-.37-1.642-.446-1.608-.525-1.585-.592-1.54-.67-1.504-.726-1.47-.804-1.413-.86-1.39-.927-1.332-.982-1.276-1.039-1.24-1.105-1.183-1.15-1.126-1.207-1.068-1.25-1.01-1.296-.954-1.351-.885-1.385-.815-1.43-.747-1.473-.689-1.508-.608-1.54-.54-1.576-.46-1.597-.38-1.641-.298-1.653-.218L79.22.087 77.513.041l-1.698.046-1.685.126-1.654.218-1.63.299-1.597.38-1.575.459-1.53.54-1.507.608-1.463.69-1.418.746-1.385.815-1.34.885-1.296.953-1.25 1.011-1.195 1.068-1.15 1.126-1.095 1.183-1.038 1.24-.983 1.276-.916 1.332-.86 1.39-.793 1.413-.736 1.47-.66 1.504-.592 1.54-.513 1.585-.447 1.608-.368 1.642-.29 1.666-.213 1.7-.123 1.723-.044 1.746.044 1.757.123 1.735.212 1.7.29 1.688.37 1.643.446 1.62.513 1.584.592 1.551.66 1.516.736 1.47.793 1.425.86 1.39.916 1.332.983 1.286 1.038 1.24 1.094 1.184 1.15 1.137 1.196 1.069 1.25 1.01 1.296.954 1.34.884 1.385.827 1.418.747 1.463.689 1.508.609 1.53.54 1.574.459 1.597.379 1.63.3 1.654.217 1.685.126 1.698.046z"/><path fill="#D82332" d="M33.223 68.143l1.697-.046 1.687-.126 1.652-.218 1.63-.3 1.598-.378 1.574-.46 1.53-.54 1.508-.608 1.463-.69 1.418-.746 1.385-.827 1.34-.884 1.296-.953 1.25-1.011 1.195-1.069 1.15-1.137 1.095-1.183 1.038-1.24.983-1.287.916-1.332.86-1.39.792-1.425.738-1.47.659-1.516.591-1.55.514-1.586.447-1.62.368-1.642.29-1.688.213-1.7.123-1.735.045-1.757-.045-1.746-.123-1.723-.213-1.7-.29-1.666-.368-1.642-.447-1.608-.514-1.585-.591-1.54-.66-1.504-.737-1.47-.792-1.413-.86-1.39-.916-1.332-.983-1.276-1.038-1.24-1.095-1.183-1.15-1.126-1.195-1.068-1.25-1.01-1.296-.954-1.34-.885-1.385-.815-1.418-.747-1.463-.689-1.508-.608-1.53-.54-1.574-.46L39.89.73 38.26.432 36.606.213 34.92.087 33.223.041l-1.708.046-1.687.126-1.653.218-1.642.299-1.596.38-1.575.459-1.54.54-1.508.608-1.475.69-1.43.746-1.384.815-1.351.885-1.296.953-1.25 1.011-1.207 1.068-1.15 1.126-1.105 1.183-1.039 1.24-.983 1.276-.926 1.332-.86 1.39-.805 1.413-.725 1.47-.67 1.504-.592 1.54-.525 1.585-.447 1.608-.368 1.642-.29 1.666-.213 1.7L.1 32.283.056 34.03.1 35.786l.122 1.735.212 1.7.29 1.688.37 1.643.446 1.62.525 1.584.592 1.551.67 1.516.725 1.47.805 1.425.86 1.39.926 1.332.983 1.286 1.039 1.24L9.77 58.15l1.15 1.137 1.207 1.069 1.25 1.01 1.296.954 1.351.884 1.385.827 1.43.747 1.474.689 1.507.609 1.541.54 1.575.459 1.596.379 1.642.3 1.653.217 1.687.126 1.708.046"/><path fill="#F1AD3D" d="M51.493 13.022h17.589v-1.77h-16.07l-1.52 1.77m-2.635 4.112h20.225v-1.77H49.918l-1.06 1.77m-1.966 4.1h22.19v-1.77H47.674l-.782 1.77m-1.352 4.112h23.542v-1.77H46.099l-.558 1.77m.781 19.872h22.815v-1.77H45.764l.558 1.77m1.687 4.112h21.128v-1.77H47.171l.838 1.77m2.367 4.101h18.761v-1.77H49.248l1.128 1.77m3.261 4.112h15.5V55.76H52.062l1.575 1.782m-8.889-28.095h24.334v-1.77H45.094l-.346 1.77m14.83 11.67h9.28v-1.77h-8.945l-.335 1.77m.737-4.101h8.543v-1.781H60.65l-.335 1.781m-16.182-1.781h2.413v1.781h-2.3l-.113-1.781"/><path fill="#FFFFFE" d="M39.633 32.995l-.156-.011-.157-.023-.145-.024-.145-.022-.134-.023-.145-.023-.146-.023-.156-.023-.156-.023-.178-.012-.201-.011-.213-.012h-.234l-.257.012-.29.023-.324.023-.224.034-.212.035-.19.069-.167.068-.157.08-.145.093-.112.115-.1.103-.067.126-.056.127-.022.138v.137l.033.15.045.149.09.15.111.149.223.218.268.173.313.149.335.126.358.115.368.126.368.138.358.15.335.194.313.242.279.287.234.356.179.436.112.517.044.62-.044.724-.079.54-.134.471-.178.437-.224.379-.256.333-.291.287-.312.252-.347.219-.357.172-.368.15-.38.114-.39.092-.381.069-.368.035-.369.023-.346.01h-.48l-.447-.01h-.39l-.37-.012-.334-.011-.302-.023-.268-.024-.257-.034-.234-.023-.212-.046-.213-.034-.19-.058-.19-.045-.178-.07-.18-.068-.188-.07.502-2.538.1.023.123.034.156.047.19.045.202.046.223.047.246.057.268.046.279.046.29.046.302.034.312.035.324.011.324.012h.324l.324-.012.324-.07.257-.091.2-.126.157-.161.111-.16.09-.184.056-.184.044-.173.023-.333-.1-.287-.19-.23-.28-.195-.335-.172-.39-.172-.437-.16-.435-.185-.446-.206-.425-.242-.39-.298-.358-.357-.28-.436-.2-.517-.101-.62.011-.736.056-.447.078-.425.112-.39.134-.369.179-.344.201-.299.234-.287.28-.253.323-.218.357-.184.402-.172.448-.126.502-.104.547-.08.603-.046.659-.012h.413l.38.012.346.011.313.012.28.023.256.023.223.023.201.023.19.023.156.035.146.023.133.022.112.023.1.012.101.023.09.012-.57 2.595m2.647-5.433h3.093l-.458 2.78h1.865l-.402 2.595-1.965-.057-1.072 6.41-.012.23.056.195.112.15.145.125.201.08.224.07.245.045.268.023.246-.011.223-.023.201-.034.179-.047.145-.045.1-.035.068-.023.022-.01-.39 2.135-.08.058-.155.092-.078.045-.079.035-.089.035-.1.034-.1.034-.113.035-.111.023-.134.023-.134.023-.146.023-.167.023-.178.022-.19.024h-.85l-.446-.035-.391-.046-.357-.068-.302-.08-.257-.105-.212-.114-.19-.138-.145-.15-.111-.16-.079-.196-.056-.195-.033-.218-.011-.242v-.252l.033-.264.034-.288 2.133-12.53"/><path fill="#FFFFFE" d="M49.248 37.268l-.033.196-.011.206.022.218.045.218.078.219.089.207.123.218.134.195.156.195.168.172.179.173.2.138.201.126.224.104.223.08.224.046.29.046.28.034.29.034.29.024.29.011h.302l.29-.011.302-.024.301-.045.301-.058.313-.069.302-.103.312-.127.324-.137.313-.184.324-.195L55.647 42l-.357.184-.179.07-.167.068-.168.058-.179.057-.178.046-.19.034-.201.035-.223.023-.235.023-.257.022-.29.012h-.301l-.347.012h-.368l-.548-.012-.558-.057-.558-.08-.56-.139-.546-.172-.525-.218-.502-.287-.47-.333-.435-.39-.38-.472-.323-.528-.268-.609-.19-.678-.123-.77-.034-.849.056-.942.045-.367.067-.425.09-.449.122-.482.168-.494.2-.494.257-.505.313-.482.357-.46.436-.437.492-.39.558-.345.647-.287.726-.206.804-.138.905-.047.435.012.459.046.457.08.458.115.447.172.435.207.402.276.369.321.335.39.279.46.223.53.157.608.089.69.011.78-.078.873-.167.965-.056.7h-8.141l.513-2.263h4.892l.022-.287-.011-.275-.023-.253-.044-.23-.079-.218-.078-.195-.11-.173-.113-.16-.134-.138-.145-.115-.168-.103-.167-.092-.179-.07-.178-.045-.19-.034-.201-.024-.212.012-.201.035-.19.045-.19.07-.19.091-.168.104-.167.126-.145.138-.145.16-.135.173-.123.184-.1.195-.1.207-.079.23-.066.229-.045.241-.447 2.378m26.635-6.238l-.146-.08-.145-.068-.156-.08-.168-.081-.167-.07-.19-.068-.19-.07-.2-.068-.213-.057-.212-.046-.235-.046-.234-.035-.257-.023-.257-.023h-.827l-.29.023-.301.035-.313.057-.312.092-.313.127-.313.16-.313.207-.301.253-.29.299-.28.367-.268.425-.246.505-.234.575-.212.643-.179.735-.067.413-.044.402-.023.402.011.391.034.39.078.368.1.345.124.344.167.31.201.299.234.265.269.24.3.207.347.173.38.149.424.103.145.035.168.035.201.022.223.023.246.023h.536l.28-.023.29-.034.29-.058.28-.08.278-.092.28-.126.257-.15.234-.184.223-.206-.502 3.067-.068.057-.067.069-.089.08-.1.07-.123.091-.157.08-.178.08-.201.07-.257.08-.29.058-.335.046-.391.046-.436.022-.503.012-.569-.012-.625-.034-.514-.057-.514-.115-.514-.172-.513-.23-.491-.276-.47-.344-.446-.402-.413-.46-.369-.517-.313-.574-.267-.643-.201-.701-.135-.77-.044-.815.022-.896.123-.954.09-.47.1-.46.111-.448.112-.425.123-.402.145-.402.145-.379.157-.356.167-.356.168-.333.19-.321.2-.3.202-.287.223-.275.223-.253.235-.24.257-.23.256-.22.269-.194.279-.184.301-.172.302-.15.313-.137.323-.127.347-.115.345-.092.358-.08.38-.07.38-.056.402-.047.402-.023.424-.01.357.01.346.023.335.035.335.046.313.046.301.069.29.057.27.07.256.069.223.068.212.069.18.069.155.057.135.047.1.045.067.023-.558 3.182m27.493 11.613h-3.093l.224-1.275v-.115l-.18.23-.189.207-.19.183-.2.16-.202.15-.2.126-.202.104-.212.103-.212.08-.212.058-.213.057-.223.035-.223.035-.212.022-.224.012h-.223l-.58-.046-.537-.126-.491-.196-.447-.264-.402-.333-.357-.39-.313-.426-.268-.482-.224-.517-.178-.54-.123-.562-.09-.586-.032-.586.01-.598.056-.585.1-.586.168-.677.201-.644.235-.586.28-.55.29-.518.335-.46.346-.413.368-.379.391-.333.413-.287.425-.253.424-.195.447-.161.446-.103.447-.07.458-.022.324.011.313.035.29.057.268.08.257.092.223.104.223.126.202.127.178.137.167.15.146.15.134.148.111.15.1.149.09.138.067.137.782-4.513h3.038l-2.525 15.024"/><path d="M103.376 42.644h-3.093l.224-1.275v-.115l-.18.23-.189.207-.19.183-.2.16-.202.15-.2.126-.202.104-.212.103-.212.08-.212.058-.213.057-.223.035-.223.035-.212.022-.224.012h-.223l-.58-.046-.537-.126-.491-.196-.447-.264-.402-.333-.357-.39-.313-.426-.268-.482-.224-.517-.178-.54-.123-.562-.09-.586-.032-.586.01-.598.056-.585.1-.586.168-.677.201-.644.235-.586.28-.55.29-.518.335-.46.346-.413.368-.379.391-.333.413-.287.425-.253.424-.195.447-.161.446-.103.447-.07.458-.022.324.011.313.035.29.057.268.08.257.092.223.104.223.126.202.127.178.137.167.15.146.15.134.148.111.15.1.149.09.138.067.137.782-4.513h3.038l-2.525 15.024"/><path fill="#F1AD3D" d="M98.318 39.864l.313-.023.29-.069.268-.08.257-.126.234-.139.224-.172.212-.195.19-.207.167-.23.156-.253.146-.264.123-.275.111-.287.09-.299.078-.31.055-.31.057-.322.033-.333v-.31l-.012-.321-.033-.3-.045-.287-.078-.275-.089-.264-.112-.23-.133-.218-.146-.184-.167-.161-.19-.138-.201-.091-.212-.058-.235-.023-.302.023-.278.046-.257.092-.258.115-.222.15-.224.183-.19.195-.19.218-.167.253-.157.264-.144.276-.123.299-.112.31-.09.31-.089.333-.067.333-.056.505.023.551.078.564.145.539.223.471.29.38.37.252.446.092"/><path fill="#FFFFFE" d="M29.739 40.093l-.447 2.55h-2.814l.078-.47.056-.425.044-.322.045-.172-.156.183-.179.184-.212.173-.234.16-.269.161-.279.138-.29.138-.302.115-.323.103-.324.08-.324.07-.335.045-.324.023-.324.012-.313-.035-.3-.046-.392-.103-.357-.115-.313-.149-.28-.173-.245-.183-.223-.207-.179-.218-.156-.23-.134-.241-.112-.253-.09-.253-.067-.252-.044-.264-.034-.264-.022-.253v-.253l.034-.448.066-.425.112-.402.146-.39.178-.368.201-.333.235-.322.268-.287.279-.264.313-.241.323-.218.335-.184.358-.161.369-.127.38-.103.39-.069h.023l.055-.011.079-.012.122-.011.134-.023.157-.011.167-.024.19-.023.19-.023.19-.023.2-.011.18-.023.178-.011.167-.012.157-.012h.38l.268.012.245.012h.246l.201.011.156.012.112.01h.034l.022-.08.067-.206.055-.241.023-.219-.044-.252-.101-.23-.134-.207-.179-.172-.212-.15-.235-.103-.268-.069-.29-.023-.313-.011-.334-.012h-.347l-.357.012-.369.023-.357.034-.357.035-.347.046-.335.045-.324.058-.29.057-.268.058-.246.069-.2.069-.157.08-.123.07.793-2.77.245-.103.246-.091.268-.08.537-.116.29-.045.29-.047.302-.023.313-.023.323-.011.335-.012h1.072l.391.012.391.011.313.023.335.058.346.08.357.104.347.137.334.161.336.196.312.218.28.252.245.276.223.31.168.345.111.367.068.39v.437l-.068.46-1.127 6.064"/><path fill="#D82332" d="M27.047 37.096l-.011-.058-.044-.057-.068-.035-.11-.022-.124-.024-.145-.011h-.335l-.179.011-.19.024-.179.022-.178.023-.167.023-.157.035-.134.035-.123.034-.078.023-.09.034-.122.046-.123.057-.145.07-.145.08-.157.08-.145.092-.156.115-.145.115-.134.138-.123.137-.112.15-.078.16-.067.184-.034.184-.01.39.055.311.112.23.145.172.167.115.19.069.179.034.179.011.335-.011.301-.034.29-.046.257-.07.224-.08.212-.103.19-.103.168-.127.145-.115.134-.137.111-.127.09-.138.078-.137.067-.138.056-.127.033-.126.09-.333.077-.379.068-.368.055-.298"/><path fill="#FFFFFE" d="M6.242 42.644H3.205L5.74 27.562h5.282l.502 8.948 3.652-8.948h5.517l-2.59 15.082h-3.038l1.92-11.268h-.122l-4.546 11.268H8.89l-.022-.471-.079-1.252-.1-1.78-.223-4.102-.1-1.803-.08-1.31-.022-.55h-.167L6.242 42.644m78.921-2.551l-.458 2.55h-2.803l.022-.47.011-.414v-.31l.023-.138-.146.172-.167.173-.201.16-.224.162-.234.149-.268.138-.28.138-.278.114-.302.092-.312.092-.314.057-.312.046-.324.023-.313.012-.301-.035-.302-.046-.402-.103-.357-.115-.313-.149-.29-.173-.245-.183-.213-.207-.178-.218-.157-.23-.134-.241-.1-.253-.09-.253-.056-.252-.044-.264-.034-.264-.022-.253v-.253l.022-.448.067-.425.1-.402.146-.39.167-.368.213-.333.234-.322.257-.287.29-.264.302-.241.323-.218.347-.184.346-.161.369-.127.368-.103.38-.069h.022l.056-.011.078-.012.112-.011.145-.023.157-.011.167-.024.179-.023.19-.023.2-.023.19-.011.19-.023.179-.011.156-.012.157-.012h.39l.268.012.258.012h.245l.212.011.179.012.1.01h.045l.022-.08.034-.206.034-.241.021-.219-.044-.252-.09-.23-.145-.207-.167-.172-.201-.15-.234-.103-.246-.069-.268-.023-.313-.011-.335-.012h-.346l-.358.012-.368.023-.357.034-.358.035-.346.046-.335.045-.324.058-.29.057-.268.058-.246.069-.2.069-.157.08-.123.07.782-2.77.245-.103.257-.091.257-.08.268-.059.28-.057.279-.045.29-.047.301-.023.313-.023.324-.011.324-.012h1.05l.379.012.38.011.312.023.336.058.346.08.357.104.346.137.347.161.334.196.313.218.28.252.256.276.223.31.168.345.123.367.078.39v.437l-.056.46-1.172 6.064"/><path fill="#FFFFFE" d="M84.705 42.676l.067-.067.457-2.504-.133-.023-.458 2.504.067-.068v.158l.056-.011.01-.056-.066.067"/><path fill="#FFFFFE" d="M81.835 42.64l.067.076h2.803v-.153h-2.803l.066.077h-.133l-.011.076h.078l-.067-.076"/><path fill="#FFFFFE" d="M82.013 41.353l-.1-.088-.045.176-.01.297v.396l-.023.45h.133l.023-.45.022-.396-.01-.297v-.088l-.1-.088.11.088"/><path fill="#FFFFFE" d="M77.67 42.76l.312.045.301.033.313-.011.324-.022.324-.044.312-.055.313-.089.313-.087.28-.11.29-.132.267-.132.235-.154.235-.154.2-.154.18-.176.144-.165-.11-.088-.146.165-.157.154-.2.154-.213.154-.234.132-.537.264-.279.11-.29.088-.313.088-.313.055-.3.044-.325.022-.313.01-.301-.032-.29-.044-.023.132"/><path fill="#FFFFFE" d="M74.967 39.347l.011.253.023.253.033.275.045.264.055.253.09.264.1.265.145.24.157.242.178.218.224.219.257.183.29.184.324.149.369.115.401.103.023-.137-.403-.104-.345-.115-.302-.15-.29-.16-.235-.183-.201-.196-.179-.218-.156-.218-.123-.242-.1-.24-.09-.242-.055-.252-.045-.265-.034-.252-.022-.253.01-.253h-.155m4.009-4.41l-.391.068-.38.104-.368.126-.358.16-.346.184-.335.23-.301.242-.29.275-.269.287-.234.322-.223.344-.168.38-.145.39-.1.414-.067.436-.034.448h.156l.011-.448.068-.414.1-.39.145-.39.167-.357.201-.321.235-.322.245-.287.291-.253.301-.24.313-.207.347-.185.334-.16.37-.127.356-.103.369-.069v-.137m2.301-.242h-.123l-.157.022-.156.011-.179.01-.19.022-.19.011-.2.022-.19.022-.179.022-.167.022-.157.01-.145.023-.112.01-.09.012-.044.01h-.022v.131h.022l.067-.01.067-.012.112-.01.145-.022.157-.011.167-.022.179-.022.19-.021.2-.022.19-.011.19-.022.179-.011.156-.011h.28v-.153m1.507.12l.067-.055h-.044l-.101-.01-.179-.011-.212-.022h-.503l-.268-.022h-.267v.153h.535l.258.022h.457l.179.01.1.012h.045l.067-.055-.067.055.056.01.011-.065-.134-.022"/><path fill="#FFFFFE" d="M82.896 34.086h-.012l-.01.208-.034.218-.033.196-.023.077.134.022.023-.077.033-.196.033-.24.034-.208h-.145m-1.329-1.143v.01l.257.012.234.066.223.099.19.132.157.154.134.186.09.198.044.232h.134l-.045-.253-.09-.242-.156-.21-.178-.175-.212-.154-.246-.099-.257-.066-.28-.033v.143"/><path fill="#FFFFFE" d="M76.776 33.465l.111.065.112-.054.146-.077.19-.065.245-.066.268-.055.29-.054.324-.054.324-.044.346-.044.358-.032.357-.033.368-.022h1.04l.312.01v-.13l-.313-.011-.335-.022h-.346l-.358.022-.368.022-.357.032-.358.033-.346.044-.346.044-.324.054-.29.055-.268.054-.246.066-.212.065-.168.077-.134.076.112.066-.134-.022"/><path fill="#FFFFFE" d="M77.602 30.675l-.044.056-.782 2.719.134.022.782-2.718-.045.056-.045-.135-.033.011-.011.045.044-.056"/><path fill="#FFFFFE" d="M82.572 30.145l-.38-.022-.38-.011h-1.05l-.323.022-.324.01-.313.023-.301.021-.302.044-.279.044-.279.054-.268.055-.268.077-.257.087-.246.098.045.13.246-.097.256-.088.246-.076.268-.054.28-.055.278-.044.28-.044.301-.021.313-.022.324-.01h1.373l.38.01h.38v-.131m3.83 3.895l.056-.47v-.437l-.078-.402-.123-.38-.178-.355-.224-.322-.268-.287-.279-.253-.324-.218-.335-.206-.357-.161-.347-.139-.368-.102-.346-.081-.347-.057-.312-.023v.138l.312.023.324.057.346.08.347.104.346.138.335.16.335.184.302.218.279.253.245.264.224.299.156.333.123.356.078.379v.436l-.056.449.134.022m-1.172 6.065l1.172-6.065-.134-.022-1.172 6.064.133.023"/><path fill="#F1AD3D" d="M82.438 37.027l-.045-.058-.078-.034-.112-.035-.122-.011-.146-.012h-.167l-.168.012-.178.023-.18.023-.178.023-.168.023-.167.034-.145.023-.145.035-.112.023-.078.011-.09.035-.11.034-.124.046-.145.069-.134.069-.156.08-.29.207-.146.126-.123.127-.123.15-.1.16-.078.172-.067.184-.034.195-.01.39.055.311.089.23.134.172.168.115.19.069.19.034.189.011.335-.011.313-.034.29-.058.257-.08.246-.092.212-.103.201-.115.179-.138.156-.126.134-.15.123-.137.1-.15.079-.138.055-.138.045-.138.033-.126.045-.321.056-.334.045-.321.022-.287z"/><path fill="#FFFFFE" d="M105.465 41.004l.022-.253.09-.297.156-.264.19-.23.234-.188.268-.132.291-.088.312-.033.313.033.29.088.268.132.235.187.19.231.157.264.089.297.022.253h-.335l-.011-.198-.067-.242-.112-.22-.145-.187-.179-.154-.212-.11-.245-.077-.258-.022-.256.022-.246.077-.212.11-.18.154-.144.187-.112.22-.067.242-.022.198h-.324"/><path fill="#FFFFFE" d="M106.47 41.036v-.655h.614l.134.01.123.022.09.033.077.044.057.066.044.065.022.076.012.077-.012.098-.022.077-.033.065-.023.022h-.469l.045-.01.078-.012.067-.022.056-.021.045-.033.022-.033.022-.054v-.077l-.011-.055-.022-.043-.034-.022-.033-.022-.056-.011-.056-.011h-.458v.426h-.279m-1.005.034l-.011.066.033.319.09.297.156.264.19.22.234.187.268.142.291.088.312.034.313-.034.29-.088.268-.142.235-.187.19-.22.157-.264.089-.297.033-.32-.011-.065h-.335l.011.066-.022.264-.067.242-.112.209-.145.186-.179.155-.212.12-.245.078-.258.022-.256-.022-.246-.077-.212-.121-.18-.155-.144-.186-.112-.21-.067-.241-.022-.264v-.066h-.324"/><path fill="#FFFFFE" d="M106.47 41.07v.666h.28v-.546h.278l.336.546h.223l-.335-.546h.078l.078-.022.067-.022.056-.043.022-.033h-.469l-.056.011h-.279v-.01h-.279M86 42.644h3.15l1.127-6.536.045-.253.134-.505.09-.253.111-.253.134-.24.145-.23.18-.219.2-.195.223-.184.257-.172.29-.138.324-.115.358-.092.39-.068.436-.024h.28l.502-2.952-.313.023-.302.035-.279.057-.268.08-.245.092-.235.115-.223.127-.213.138-.2.16-.19.162-.358.367-.167.195-.167.218-.168.207-.156.23.335-2.08h-3.139L86 42.645m-29.571-.001h3.205l1.072-6.536.045-.253.055-.24.057-.242.078-.23.089-.23.112-.218.134-.207.156-.195.179-.173.2-.172.247-.137.267-.127.313-.103.346-.092.38-.058.436-.034h.033l.045.012.055.01h.056l.056.012.045.012.033.011h.011l.011-.045.034-.138.044-.207.057-.252.078-.299.078-.322.1-.321.1-.322.09-.219.224-.436.111-.195.1-.173.079-.137.056-.08.022-.035h-.011l-.045-.012-.056-.011-.078-.012h-.078l-.09-.011-.077-.012h-.078l-.347.023-.313.035-.29.057-.268.07-.257.091-.234.115-.212.115-.201.138-.19.149-.179.172-.167.173-.168.195-.167.195-.157.218-.335.46.402-2.08h-3.205L56.43 42.645"/><path fill="#F1AD3D" d="M105.487 54.673v-.044l.09-.286.156-.253.19-.22.234-.176.268-.132.291-.077.312-.033.313.033.29.077.268.132.235.176.19.22.157.253.089.286v.044h-.324l-.067-.23-.112-.21-.145-.187-.179-.154-.212-.12-.245-.078-.258-.022-.256.022-.246.077-.212.121-.18.154-.144.187-.112.21-.067.23h-.324m-.033.294l.033-.24h.324v.01l-.022.23h-.335m1.016 0v-.24h.28v.219h.278l.1-.022.079-.01.067-.023.056-.022.045-.033.022-.032.022-.055v-.022h.224l-.012.077-.022.065-.033.055-.045.043h-1.06m1.797 0l-.022-.23v-.01h.324l.033.24h-.335m-2.814.013v.033l.033.319.09.297.156.264.19.23.234.187.268.133.291.088.312.033.313-.033.29-.088.268-.133.235-.186.19-.231.157-.264.089-.297.033-.319v-.033h-.335v.033l-.022.264-.067.242-.112.209-.145.186-.179.155-.212.12-.245.077-.258.022-.256-.022-.246-.077-.212-.12-.18-.155-.144-.186-.112-.21-.067-.241-.022-.264v-.033h-.335"/><path fill="#F1AD3D" d="M106.47 54.98v.633h.28v-.546h.278l.336.546h.223l-.335-.546h.078l.078-.022.067-.022.056-.043h-1.06"/></g></svg>