<svg xmlns="http://www.w3.org/2000/svg" xmlns:xlink="http://www.w3.org/1999/xlink" width="117" height="91"><defs><path id="a" d="M0 0h116.498v90.618H0z"/></defs><g fill="none" fill-rule="evenodd"><mask id="b" fill="#fff"><use xlink:href="#a"/></mask><path fill="#FEFEFE" d="M58.249 7.71c-.464.365-.918.741-1.362 1.128C49.3 15.438 44.499 25.154 44.499 36c0 10.843 4.802 20.56 12.388 27.16.444.387.898.764 1.362 1.129a36.91 36.91 0 0 0 1.363-1.129c7.586-6.6 12.387-16.317 12.387-27.16 0-10.845-4.801-20.563-12.387-27.163a36.858 36.858 0 0 0-1.363-1.127zM80.498 0a35.834 35.834 0 0 0-19.93 6.016c.293.24.589.476.87.721a38.782 38.782 0 0 1 13.347 29.264A38.785 38.785 0 0 1 61.44 65.263c-.281.244-.58.48-.871.72a35.826 35.826 0 0 0 19.929 6.016c19.882 0 36-16.116 36-35.998 0-19.883-16.118-36-36-36zm-25.44 65.263c.282.244.579.48.87.72A35.824 35.824 0 0 1 36 71.999C16.117 72 0 55.883 0 36.002 0 16.119 16.117 0 36 0a35.831 35.831 0 0 1 19.929 6.015c-.292.24-.587.476-.87.72A38.784 38.784 0 0 0 41.714 36a38.78 38.78 0 0 0 13.345 29.262zm60.313-6.955V56.91h-.366l-.42.962-.42-.962h-.364v1.399h.258v-1.055l.394.909h.266l.394-.911v1.056h.258zm-2.311 0v-1.16h.467v-.236h-1.191v.236h.468v1.16h.256zm1.125 31.08v.236h.217c.049 0 .089-.01.118-.03a.102.102 0 0 0 .044-.09.1.1 0 0 0-.044-.088.224.224 0 0 0-.118-.028h-.217zm.219-.166c.113 0 .2.026.262.077a.253.253 0 0 1 .09.205.242.242 0 0 1-.072.181.359.359 0 0 1-.208.087l.288.334h-.225l-.268-.332h-.086v.332h-.188v-.883h.407zm-.056 1.186a.716.716 0 0 0 .519-.218.738.738 0 0 0 .157-.812.729.729 0 0 0-.676-.448.725.725 0 0 0-.686.449.741.741 0 0 0-.057.288.738.738 0 0 0 .743.74zm0-1.69c.133 0 .259.023.376.073a.97.97 0 0 1 .515.507.92.92 0 0 1 .075.37.914.914 0 0 1-.282.668 1 1 0 0 1-.308.206.933.933 0 0 1-.376.076.964.964 0 0 1-.691-.281.952.952 0 0 1-.207-.302.915.915 0 0 1-.076-.367.938.938 0 0 1 .283-.672.98.98 0 0 1 .691-.278zm-89.175-3.395c0-1.68 1.099-3.06 2.899-3.06 1.72 0 2.88 1.32 2.88 3.06s-1.16 3.06-2.88 3.06c-1.8 0-2.9-1.38-2.9-3.06zm7.739 0v-4.78h-2.08v1.16c-.66-.859-1.66-1.398-3.02-1.398-2.68 0-4.78 2.098-4.78 5.017 0 2.92 2.1 5.02 4.78 5.02 1.36 0 2.36-.54 3.02-1.4v1.162h2.08v-4.781zm70.23 0c0-1.68 1.1-3.06 2.899-3.06 1.72 0 2.88 1.32 2.88 3.06s-1.16 3.06-2.88 3.06c-1.8 0-2.9-1.38-2.9-3.06zm7.739 0v-8.618h-2.08v4.999c-.66-.86-1.66-1.4-3.02-1.4-2.68 0-4.78 2.1-4.78 5.019 0 2.92 2.1 5.02 4.78 5.02 1.36 0 2.36-.54 3.02-1.4v1.16h2.08v-4.78zm-52.173-3.16c1.34 0 2.2.84 2.419 2.32h-4.96c.22-1.38 1.06-2.32 2.54-2.32zm.04-1.858c-2.8 0-4.76 2.038-4.76 5.017 0 3.04 2.04 5.02 4.9 5.02 1.44 0 2.76-.36 3.919-1.34l-1.02-1.54c-.8.641-1.82 1-2.78 1-1.34 0-2.56-.62-2.86-2.34h7.1c.02-.26.04-.519.04-.8-.02-2.978-1.86-5.017-4.54-5.017zm25.096 5.017c0-1.678 1.1-3.059 2.9-3.059 1.72 0 2.88 1.32 2.88 3.06s-1.16 3.06-2.88 3.06c-1.8 0-2.9-1.38-2.9-3.06zm7.739 0v-4.779h-2.08v1.16c-.66-.859-1.66-1.398-3.02-1.398-2.68 0-4.778 2.098-4.778 5.017 0 2.92 2.099 5.02 4.779 5.02 1.36 0 2.36-.54 3.019-1.4v1.162h2.08v-4.781zm-19.477 0c0 2.901 2.02 5.02 5.1 5.02 1.439 0 2.399-.319 3.439-1.14l-1-1.678c-.78.558-1.6.858-2.5.858-1.66-.02-2.88-1.22-2.88-3.06 0-1.838 1.22-3.038 2.88-3.059.9 0 1.72.3 2.5.86l1-1.68c-1.04-.82-2-1.138-3.44-1.138-3.08 0-5.1 2.118-5.1 5.017zm26.797-5.017c-1.2 0-1.981.558-2.52 1.398v-1.16h-2.06v9.56h2.08v-5.36c0-1.58.679-2.46 2.04-2.46.42 0 .859.06 1.3.24l.639-1.959c-.46-.18-1.06-.26-1.48-.26zm-55.713.998c-1-.659-2.38-.998-3.9-.998-2.42 0-3.978 1.158-3.978 3.058 0 1.56 1.159 2.52 3.299 2.82l.98.14c1.139.16 1.679.46 1.679 1 0 .74-.76 1.16-2.18 1.16-1.44 0-2.48-.46-3.18-1l-.98 1.62c1.14.839 2.58 1.24 4.14 1.24 2.76 0 4.36-1.3 4.36-3.12 0-1.68-1.26-2.56-3.34-2.86l-.98-.14c-.9-.12-1.62-.3-1.62-.94 0-.7.68-1.12 1.82-1.12 1.22 0 2.4.46 2.98.82l.9-1.68zm26.816-.998c-1.2 0-1.98.558-2.52 1.398v-1.16h-2.06v9.56h2.08v-5.36c0-1.58.68-2.46 2.04-2.46.42 0 .86.06 1.3.24l.64-1.959c-.46-.18-1.06-.26-1.48-.26zm-17.737.238h-3.4v-2.899h-2.1v2.9h-1.94v1.9h1.94v4.36c0 2.22.86 3.538 3.32 3.538.9 0 1.94-.28 2.6-.739l-.6-1.78c-.62.36-1.3.54-1.84.54-1.04 0-1.38-.64-1.38-1.6v-4.32h3.4v-1.9zm-31.076 9.56v-6c0-2.26-1.44-3.78-3.76-3.798-1.22-.022-2.48.358-3.36 1.698-.66-1.06-1.7-1.698-3.158-1.698-1.02 0-2.02.3-2.8 1.42v-1.181h-2.08v9.56h2.1v-5.3c0-1.66.92-2.54 2.34-2.54 1.379 0 2.079.9 2.079 2.519v5.32h2.1v-5.3c0-1.66.96-2.54 2.34-2.54 1.42 0 2.099.9 2.099 2.52v5.32h2.1z" mask="url(#b)"/></g></svg>