<svg xmlns="http://www.w3.org/2000/svg" xmlns:xlink="http://www.w3.org/1999/xlink" width="286" height="81"><defs><path id="a" d="M.738.125h78.839V44H.737z"/></defs><g fill="none" fill-rule="evenodd"><path fill="#FFF" d="M158.772 8.498l-18.014 39.03h-1.832V.003h-25.593v80.432h21.725c5.7 0 10.882-3.315 13.275-8.496l18.018-39.031h1.827v47.527h25.593V.002h-21.719a14.623 14.623 0 0 0-13.28 8.496m-96.015 2.075l-10.66 36.96H50.27l-10.66-36.96A14.632 14.632 0 0 0 25.557 0H0v80.437h25.587V32.905h1.832l14.623 47.532h18.281l14.623-47.532h1.827v47.532h25.592V0H76.808a14.631 14.631 0 0 0-14.05 10.573"/><g transform="translate(204 36.438)"><mask id="b" fill="#fff"><use xlink:href="#a"/></mask><path fill="#FFF" d="M.738.125V44h25.54V18.407h27.473c11.932 0 22.056-7.638 25.826-18.282H.737z" mask="url(#b)"/></g><path fill="#FFF" d="M257.752.002H201.08c3.442 18.719 19.822 32.904 39.533 32.904h44.01a27.84 27.84 0 0 0 .548-5.485c0-15.142-12.277-27.419-27.42-27.419"/></g></svg>