<svg xmlns="http://www.w3.org/2000/svg" xmlns:xlink="http://www.w3.org/1999/xlink" width="186" height="57"><defs><path id="a" d="M31.001 0c-5.667 0-11.462 1.414-16.349 4.391-3.402 2.07-6.275 5.264-7.575 9.068-1.1 3.234-1.248 6.999.308 10.12 1.691 3.478 4.872 5.96 8.158 7.863 3.21 1.88 6.851 3.038 9.776 5.396 1.177.91 2.025 2.389 1.748 3.92-.225 1.8-1.748 3.089-3.33 3.767-3.043 1.338-6.451 1.132-9.682.891-4.178-.324-8.148-1.828-11.924-3.573C1.432 45.941.724 50.016.035 54.11 4.897 56.078 10.172 57 15.373 57h3.256c6.518 0 13.344-1.84 18.399-6.199 3.938-3.32 6.101-8.533 5.712-13.664-.192-3.177-1.776-6.149-4.058-8.321-2.998-2.978-6.913-4.689-10.65-6.525-1.883-1-3.906-1.944-5.364-3.549-1.039-1.099-1.146-2.915-.193-4.103 1.379-1.792 3.736-2.438 5.887-2.692 4.972-.434 10.084.408 14.569 2.624.678-3.965 1.36-8.115 2.029-12.081C40.964 1.004 36.703 0 32.45 0h-1.449z"/><path id="c" d="M18.603.317c-2.852 0-5.706-.001-8.558.002C6.924 18.627 3.8 36.934.686 55.245c4.987.003 9.974 0 14.961 0 3.135-18.308 6.252-36.618 9.372-54.929-2.137.002-4.277.001-6.416.001"/><path id="e" d="M52.124 0c-4.888 13-9.765 25.148-14.662 37.633-.557-2.616-1.043-5.164-1.642-7.773-1.633-8.135-3.373-16.199-5.037-24.326-.269-1.481-.939-2.943-2.182-3.858C27.11.572 25.184.331 23.383.304 15.497.304 7.898.311.014.313A.563.563 0 0 0 0 .449v.018c.002.251.088.605.088.796v.199c5.001 1.337 10.507 3.292 15.433 6.024 4.464 15.895 8.74 31.811 13.181 47.712 2.712.016 5.403-.037 8.095-.089 2.555-.05 5.108-.101 7.68-.093C52.343 36.74 60.123 19 67.982 0H52.124z"/><path id="g" d="M30.771.371c-1.864.023-3.923.319-5.446 1.487-1.091.815-1.883 2.001-2.42 3.246C15.525 21.827 8.112 38.533.741 55.264c5.239.002 10.464 0 15.694 0 1.074-2.745 2.095-5.506 3.163-8.244 2.874-.002 5.747.003 8.622.007 3.514.005 7.029.012 10.546.004.617 2.743 1.514 5.492 2.137 8.233 4.62.002 9.184 0 14.185.002v-.086c-4-18.264-8.375-36.537-12.419-54.809L34.726.37l-3.955.001m-6.868 35.394c2.65-6.855 5.348-13.698 7.949-20.582 1.451 6.864 2.984 13.722 4.469 20.587l-6.481.001c-1.979 0-3.958-.001-5.937-.006"/></defs><g fill="none" fill-rule="evenodd"><g transform="translate(89)"><mask id="b" fill="#fff"><use xlink:href="#a"/></mask><path fill="#FFF" d="M31.001 0c-5.667 0-11.462 1.414-16.349 4.391-3.402 2.07-6.275 5.264-7.575 9.068-1.1 3.234-1.248 6.999.308 10.12 1.691 3.478 4.872 5.96 8.158 7.863 3.21 1.88 6.851 3.038 9.776 5.396 1.177.91 2.025 2.389 1.748 3.92-.225 1.8-1.748 3.089-3.33 3.767-3.043 1.338-6.451 1.132-9.682.891-4.178-.324-8.148-1.828-11.924-3.573C1.432 45.941.724 50.016.035 54.11 4.897 56.078 10.172 57 15.373 57h3.256c6.518 0 13.344-1.84 18.399-6.199 3.938-3.32 6.101-8.533 5.712-13.664-.192-3.177-1.776-6.149-4.058-8.321-2.998-2.978-6.913-4.689-10.65-6.525-1.883-1-3.906-1.944-5.364-3.549-1.039-1.099-1.146-2.915-.193-4.103 1.379-1.792 3.736-2.438 5.887-2.692 4.972-.434 10.084.408 14.569 2.624.678-3.965 1.36-8.115 2.029-12.081C40.964 1.004 36.703 0 32.45 0h-1.449z" mask="url(#b)"/></g><g transform="translate(64 1)"><mask id="d" fill="#fff"><use xlink:href="#c"/></mask><path fill="#FFF" d="M18.603.317c-2.852 0-5.706-.001-8.558.002C6.924 18.627 3.8 36.934.686 55.245c4.987.003 9.974 0 14.961 0 3.135-18.308 6.252-36.618 9.372-54.929-2.137.002-4.277.001-6.416.001" mask="url(#d)"/></g><g transform="translate(0 1)"><mask id="f" fill="#fff"><use xlink:href="#e"/></mask><path fill="#FFF" d="M52.124 0c-4.888 13-9.765 25.148-14.662 37.633-.557-2.616-1.043-5.164-1.642-7.773-1.633-8.135-3.373-16.199-5.037-24.326-.269-1.481-.939-2.943-2.182-3.858C27.11.572 25.184.331 23.383.304 15.497.304 7.898.311.014.313A.563.563 0 0 0 0 .449v.018c.002.251.088.605.088.796v.199c5.001 1.337 10.507 3.292 15.433 6.024 4.464 15.895 8.74 31.811 13.181 47.712 2.712.016 5.403-.037 8.095-.089 2.555-.05 5.108-.101 7.68-.093C52.343 36.74 60.123 19 67.982 0H52.124z" mask="url(#f)"/></g><g transform="translate(130 1)"><mask id="h" fill="#fff"><use xlink:href="#g"/></mask><path fill="#FFF" d="M30.771.371c-1.864.023-3.923.319-5.446 1.487-1.091.815-1.883 2.001-2.42 3.246C15.525 21.827 8.112 38.533.741 55.264c5.239.002 10.464 0 15.694 0 1.074-2.745 2.095-5.506 3.163-8.244 2.874-.002 5.747.003 8.622.007 3.514.005 7.029.012 10.546.004.617 2.743 1.514 5.492 2.137 8.233 4.62.002 9.184 0 14.185.002v-.086c-4-18.264-8.375-36.537-12.419-54.809L34.726.37l-3.955.001m-6.868 35.394c2.65-6.855 5.348-13.698 7.949-20.582 1.451 6.864 2.984 13.722 4.469 20.587l-6.481.001c-1.979 0-3.958-.001-5.937-.006" mask="url(#h)"/></g></g></svg>