<svg xmlns="http://www.w3.org/2000/svg" xmlns:xlink="http://www.w3.org/1999/xlink" width="16" height="16"><defs><linearGradient id="a" x1="50%" x2="50%" y1="2.621%" y2="97.784%"><stop offset="0%" stop-color="#FFF"/><stop offset="100%" stop-color="#F2F4F7"/></linearGradient><path id="b" d="M573 78.746l4.072-4.072a2.293 2.293 0 0 1 3.25.004c.9.898.901 2.353.004 3.25L576.254 82l4.072 4.072a2.293 2.293 0 0 1-.004 3.25 2.298 2.298 0 0 1-3.25.004L573 85.254l-4.072 4.072a2.293 2.293 0 0 1-3.25-.004 2.298 2.298 0 0 1-.004-3.25L569.746 82l-4.072-4.072a2.293 2.293 0 0 1 .004-3.25 2.298 2.298 0 0 1 3.25-.004L573 78.746z"/><filter id="c" width="112.5%" height="112.5%" x="-6.3%" y="-6.3%" filterUnits="objectBoundingBox"><feGaussianBlur in="SourceAlpha" result="shadowBlurInner1" stdDeviation=".5"/><feOffset dx="-1" dy="1" in="shadowBlurInner1" result="shadowOffsetInner1"/><feComposite in="shadowOffsetInner1" in2="SourceAlpha" k2="-1" k3="1" operator="arithmetic" result="shadowInnerInner1"/><feColorMatrix in="shadowInnerInner1" values="0 0 0 0 0 0 0 0 0 0 0 0 0 0 0 0 0 0 0.117215806 0"/></filter></defs><g fill="#fff" fill-rule="evenodd" transform="translate(-565 -74)"><use fill="url(#a)" xlink:href="#b"/><use fill="#000" filter="url(#c)" xlink:href="#b"/></g></svg>